<svg data-name="Capa 1" xmlns="http://www.w3.org/2000/svg" viewBox="0 0 69.15 67.89"><path d="M40.88 50.17c1.7-.4 3.2-.6 4.7-1 5.8-1.5 9.3-5.2 10.4-11.1a18.15 18.15 0 00-.3-9.8 11.13 11.13 0 00-2.2-3.8 1.4 1.4 0 01-.3-1.5 12.14 12.14 0 00-.2-7.3 1.17 1.17 0 00-1.4-1h-.2a16.35 16.35 0 00-6.7 2.7 3.78 3.78 0 01-3.3.5 30.07 30.07 0 00-14.3.1 3.15 3.15 0 01-2.5-.4 18.25 18.25 0 00-6.2-2.8c-1.9-.4-2.1-.3-2.6 1.5a13 13 0 00-.1 6.5 1.74 1.74 0 01-.4 1.8c-4.8 5.4-3.1 17 1.5 21.1a18.63 18.63 0 009.5 4.2l1.8.3a7.23 7.23 0 00-2 4.1 1.09 1.09 0 01-.8.8 7.1 7.1 0 01-9.2-2.8 9.62 9.62 0 00-1.8-2.2 6.38 6.38 0 00-2.9-1.6c-.7-.2-1.7-.4-2.1.3s.6 1.2 1.2 1.6a8.68 8.68 0 013.4 4.4c1.8 5.1 6.2 6.3 10.8 5.5 1.1-.2 1.3 0 1.3 1.1-.1 1.4 0 2.7 0 4.1q0 3.3-3 2.1c-11.1-4.4-18.6-12.2-21.7-23.7-5-17.9 4.8-38.5 26.7-43.1a32.59 32.59 0 0129.5 8.1 33.69 33.69 0 0111.6 27.7 34.6 34.6 0 01-22.8 30.8c-2.3.9-3.2.3-3.2-2.2v-8c0-2.6-.3-4.9-2.2-7z" fill="#fff"/></svg>