<svg id="Capa_1" data-name="Capa 1" xmlns="http://www.w3.org/2000/svg" viewBox="0 0 66.8 66.8"><defs><style>.cls-1{fill:#fff}</style></defs><path class="cls-1" d="M34.1 1.1A33.4 33.4 0 11.6 34.4v-.5A33.36 33.36 0 0134.1 1.1zM55.4 44c.1-6.6.1-13.1 0-19.7A11.46 11.46 0 0043.9 13h-20a11.39 11.39 0 00-11.2 10.9c-.1 6.8-.1 13.5 0 20.3s5 11.6 11.9 11.6h9.5v.1h5.6a31.9 31.9 0 006.2-.2c5.7-1 9.4-5.5 9.5-11.7z" transform="translate(-.6 -1.1)" id="_Grupo_" data-name="&lt;Grupo&gt;"/><path class="cls-1" d="M52 34.4c0 3 .1 6 0 9a9.44 9.44 0 01-9.6 9.1H25.7c-5.6 0-9.7-4.2-9.7-10-.1-5.3-.1-10.7 0-16 0-6.2 4-10.1 10.2-10.1h16a9.41 9.41 0 019.6 7.7 25.67 25.67 0 01.1 4.8c.1 1.9.1 3.7.1 5.5zm-29.8 0a11.9 11.9 0 1012.1-11.7h-.1a11.74 11.74 0 00-11.9 11.6zm27.4-11a3.25 3.25 0 00-3.1-3.4h-.2a3.37 3.37 0 00-3.4 3.4 3.49 3.49 0 003.4 3.3 3.33 3.33 0 003.3-3.3z" transform="translate(-.6 -1.1)"/><path class="cls-1" d="M25.5 34.6a8.5 8.5 0 118.6 8.4h-.2a8.39 8.39 0 01-8.4-8.4z" transform="translate(-.6 -1.1)"/></svg>