<svg id="Capa_1" data-name="Capa 1" xmlns="http://www.w3.org/2000/svg" viewBox="0 0 66.8 66.8"><defs><style>.cls-1{fill:#fff;}</style></defs><title>instagram-logo</title><g id="_Grupo_" data-name="&lt;Grupo&gt;"><path class="cls-1" d="M34.1,1.1A33.4,33.4,0,1,1,.6,34.4v-.5A33.36,33.36,0,0,1,34.1,1.1ZM55.4,44c.1-6.6.1-13.1,0-19.7A11.46,11.46,0,0,0,43.9,13h-20A11.39,11.39,0,0,0,12.7,23.9c-.1,6.8-.1,13.5,0,20.3s5,11.6,11.9,11.6h9.5v.1h5.6a31.9,31.9,0,0,0,6.2-.2C51.6,54.7,55.3,50.2,55.4,44Z" transform="translate(-0.6 -1.1)"/></g><path class="cls-1" d="M52,34.4c0,3,.1,6,0,9a9.44,9.44,0,0,1-9.6,9.1H25.7c-5.6,0-9.7-4.2-9.7-10-.1-5.3-.1-10.7,0-16,0-6.2,4-10.1,10.2-10.1h16a9.41,9.41,0,0,1,9.6,7.7,25.67,25.67,0,0,1,.1,4.8c.1,1.9.1,3.7.1,5.5Zm-29.8,0A11.9,11.9,0,1,0,34.3,22.7h-.1A11.74,11.74,0,0,0,22.3,34.3Zm27.4-11A3.25,3.25,0,0,0,46.5,20h-.2a3.37,3.37,0,0,0-3.4,3.4h0a3.49,3.49,0,0,0,3.4,3.3,3.33,3.33,0,0,0,3.3-3.3Z" transform="translate(-0.6 -1.1)"/><path class="cls-1" d="M25.5,34.6A8.5,8.5,0,1,1,34.1,43h-.2A8.39,8.39,0,0,1,25.5,34.6Z" transform="translate(-0.6 -1.1)"/></svg>