<svg id="Capa_1" data-name="Capa 1" xmlns="http://www.w3.org/2000/svg" viewBox="0 0 69.02 69.17"><defs><style>.cls-1{fill:#fff;}</style></defs><title>linkedin-logo</title><path class="cls-1" d="M37.2,70H31.4c-.1-.3-.5-.2-.7-.3A36.47,36.47,0,0,1,21,67.2C6,60.9-2.3,45.3.7,28.9,4.2,9.5,22.9-1.9,40.8,1.4A34.48,34.48,0,0,1,68.4,42.1C65.4,56.2,56.5,65,42.7,69A53,53,0,0,1,37.2,70Zm.5-39a5.45,5.45,0,0,1-.1-2.2c.1-.7-.2-1-.9-1H31.5c-2.4,0-2.4,0-2.4,2.4,0,7.2,0,14.5-.1,21.7,0,1,.3,1.3,1.3,1.3,2-.1,4.1-.1,6.1,0,1,0,1.2-.4,1.2-1.3-.2-3.8.1-7.7,0-11.5V38.1A4.63,4.63,0,0,1,42,33.9c2-.2,3.6,1.1,4.1,3.4a7.07,7.07,0,0,1,.2,2.5V52c0,.7.1,1.2.9,1.2h6.7c.7,0,.8-.3.8-.8-.1-5.3.2-10.6-.2-16-.3-4.5-3-7.9-6.9-8.8S40.4,27.4,37.7,31ZM16.1,40.4V52c0,.8.2,1.1,1.1,1.1h6.5c.8,0,.9-.3.9-1V28.7c0-.8-.3-1-1.1-1H17.1c-.9,0-1.1.3-1.1,1.1C16.1,32.7,16.1,36.5,16.1,40.4Zm4.1-16A4.57,4.57,0,0,0,25.1,20a4.44,4.44,0,0,0-4.3-4.5h-.4a4.46,4.46,0,1,0-.6,8.9Z" transform="translate(-0.09 -0.83)"/></svg>